<?xml version="1.0" encoding="UTF-8" standalone="no"?>
<svg
   id="Capa_1"
   version="1.1"
   viewBox="0 0 540 336.25"
   sodipodi:docname="pix4d.svg"
   width="540"
   height="336.25"
   inkscape:version="1.4.2 (ebf0e940, 2025-05-08)"
   xmlns:inkscape="http://www.inkscape.org/namespaces/inkscape"
   xmlns:sodipodi="http://sodipodi.sourceforge.net/DTD/sodipodi-0.dtd"
   xmlns="http://www.w3.org/2000/svg"
   xmlns:svg="http://www.w3.org/2000/svg">
  <sodipodi:namedview
     id="namedview8"
     pagecolor="#ffffff"
     bordercolor="#000000"
     borderopacity="0.25"
     inkscape:showpageshadow="2"
     inkscape:pageopacity="0.0"
     inkscape:pagecheckerboard="0"
     inkscape:deskcolor="#d1d1d1"
     inkscape:zoom="0.53553439"
     inkscape:cx="157.78632"
     inkscape:cy="290.36417"
     inkscape:window-width="1512"
     inkscape:window-height="916"
     inkscape:window-x="0"
     inkscape:window-y="38"
     inkscape:window-maximized="0"
     inkscape:current-layer="Capa_1" />
  <!-- Generator: Adobe Illustrator 29.0.0, SVG Export Plug-In . SVG Version: 2.1.0 Build 186)  -->
  <defs
     id="defs2">
    <style
       id="style1">
      .st0 {
        fill: #fff;
      }

      .st1 {
        fill: url(#Degradado_sin_nombre);
      }
    </style>
    <linearGradient
       id="Degradado_sin_nombre"
       data-name="Degradado sin nombre"
       x1="436.10001"
       y1="409.60001"
       x2="436.20001"
       y2="409.70001"
       gradientTransform="matrix(1,0,0,-1,-101.1,438.35)"
       gradientUnits="userSpaceOnUse">
      <stop
         offset="0"
         stop-color="#2ad563"
         id="stop1" />
      <stop
         offset="1"
         stop-color="#0f5"
         id="stop2" />
    </linearGradient>
  </defs>
  <path
     class="st1"
     d="M 335.1,28.75 H 335 Z"
     id="path2"
     style="fill:url(#Degradado_sin_nombre)" />
  <path
     class="st0"
     d="m 304.8,124.85 -24.9,43.2 h 111 c 10.9,0 17.7,-11.8 12.2,-21.2 L 335,28.75 322.4,7.05 c -5.4,-9.4 -19,-9.4 -24.5,0 l -12.5,21.7 -55.4,96 -30.4,-52.8 h 35.8 l 24.9,-43.2 h -111 c -10.9,0 -17.7,11.8 -12.2,21.2 l 68.1,118 v 0 c 0,0.1 0,0.1 0,0.1 v 0 c 0,-0.1 0,0 0,0 l 12.5,21.7 c 5.4,9.4 19,9.4 24.5,0 l 12.5,-21.7 55.4,-96 30.5,52.8 z"
     id="path3" />
  <path
     class="st0"
     d="m 82.2,271.45 c 0,20.9 -14.2,34.6 -35.9,34.6 H 16.6 v 30.1 H 0 v -99.3 h 46.3 c 21.7,0 35.9,13.8 35.9,34.6 z m -16.5,0 c 0,-11.8 -8.1,-19.4 -20.3,-19.4 H 16.5 v 39 h 28.9 c 12.2,0 20.3,-7.7 20.3,-19.6 z"
     id="path4" />
  <path
     class="st0"
     d="M 129.4,236.85 H 146 v 99.3 h -16.6 z"
     id="path5" />
  <path
     class="st0"
     d="m 282.1,336.15 h -20 l -14.8,-21.4 -11.2,-16.9 -11.4,16.9 -14.8,21.4 h -19.7 l 35,-50.5 -33.6,-48.8 h 19.6 l 13.6,20 11.3,17.2 11.5,-17.2 13.6,-20 h 19.4 l -33.8,48.8 z"
     id="path6" />
  <path
     class="st0"
     d="m 402.3,316.75 h -11.6 v 19.4 h -16.6 v -19.4 h -54.8 l -2,-15.3 54.3,-64.6 h 19 v 64.6 h 11.6 v 15.3 z m -66.4,-15.2 h 38.2 v -45 z"
     id="path7" />
  <path
     class="st0"
     d="m 540,286.55 c 0,29.8 -20.1,49.7 -50.1,49.7 h -38 v -99.3 h 38 c 30,-0.1 50.1,19.8 50.1,49.6 z m -16.7,0 c 0,-20.4 -13.6,-34.3 -33.3,-34.3 h -21.4 v 68.7 h 21.3 c 19.9,-0.1 33.4,-14 33.4,-34.4 z"
     id="path8" />
</svg>
