<?xml version="1.0" encoding="UTF-8"?>
<svg id="Layer_2" data-name="Layer 2" xmlns="http://www.w3.org/2000/svg" viewBox="0 0 1052.06 248.87">
  <defs>
    <style>
      .cls-1 {
        fill: #fff;
      }
    </style>
  </defs>
  <g id="Layer_1-2" data-name="Layer 1">
    <g>
      <path class="cls-1" d="M1026.83,53.64c-.67.21-1.33.42-2,.63.67-.21,1.33-.42,2-.63Z"/>
      <path class="cls-1" d="M339.82,63.51c19.86,0,38.66,2.84,48.1,9.35,9.45,6.51,7.01,16.86,4.65,30.59-1.47,8.56-3.03,18.93-8.22,24.26-5.19,5.35-11.97,6.29-20.52,9.34,2.15,3.06,25.61,47.84,25.96,48.87l-37.38.07c-1.74-3.98-20.81-40.58-22.88-43.39l-9.99-1.84-6.05,44.71h-34.98l18.15-120.18c6.71-1.18,37.67-1.77,43.14-1.77ZM335.26,91.5c-3.71,0-8.91.1-8.91.1l-3.34,24.4,12.7.37c11.21,0,15.73.36,20.05-3.64,2.65-2.45,3.86-7.35,4.16-12.1.24-3.88.61-8.56-4.6-8.91-4.46-.3-15.74-.22-20.05-.22Z"/>
      <path class="cls-1" d="M446.12,163.52c1.89-1.15,4.86-14.96,3.68-15.67-.75-.45-21.05-.37-22.91.71-1.14.66-4.31,15.78-4.31,15.78,0,0,21.35.51,23.54-.82ZM447.3,91.44c8.34,0,15.14.87,20.4,2.65,5.25,1.76,10.66,4.31,13.46,7.6,2.78,3.28,4.26,6.25,4.85,10.94.59,4.69-1.64,21.34-2.62,27.08l-6.29,46.09c-4.85.2-17.2.14-24.73.33-7.76.2-5.26-3.72-9.5-2.28-12.57,4.26-21.81,5.26-27.89,4.96-5.17-.25-10.08-2.24-13.46-4.65-3.37-2.4-6.35-4.55-7.72-8.42-1.35-3.86-.84-12.11-.31-17.8.51-5.57,2.22-13.33,4.82-17.35,2.52-3.91,3.71-5.84,7.72-8.37,4.09-2.57,7.98-3.61,13.27-4.16,5.25-.54,10.8-.5,16.24-.5,3.67,0,7.09.05,9.9-.15,2.87-.2,6.34-.5,8.02-.74l.3-4.75c-.4-4.6-.65-5.46-2.97-6.24-2.68-.9-6.63-.63-13.81-.25-4.65.25-6.98.25-11.83.59-4.84.35-15.44.84-19.5,1.68l4.28-22.87c1.72-.47,15.2-1.51,18.19-1.91,2.97-.41,6.1-.76,9.37-1.06,3.27-.3,6.54-.44,9.84-.44Z"/>
      <path class="cls-1" d="M553.15,120.12c.08-1-1.18-4.14-4.54-4.93-1.69-.4-7.1-.2-9.27,0-1.87.17-7.1,3.16-7.89,6.31l-9.07,64.89-32.94.59,14-92.7c2.44-.58,9.32,0,12.62,0,3.75,0,11.83.39,15.58.39s2.96,3.35,7.49,1.97c3.59-1.09,9.45-3.94,13.02-3.94,7.01,0,16.63.87,20.71,2.56,4.08,1.71,5.45,3.37,7.89,5.72,4.39-2.69,7.07-4.2,12.43-5.72,5.37-1.54,13.24-1.78,17.55-1.78,7.75,0,11.72.31,16.37,2.37,4.63,2.06,7.72,4.72,10.06,8.48,2.33,3.76,1.92,8.06,2.17,13.21.25,5.16-4.28,25.82-5.33,32.15l-4.93,37.47-33.53-.99,7.1-40.83c3.94-25.05,4.73-26.23,3.35-28.6-1.27-2.18-3.94-2.17-8.09-2.17-1.38,0-9.66.2-11.05,2.56-1.43,2.45-11.64,68.64-11.64,68.64l-31.95.39s9.66-63.51,9.86-66.07Z"/>
      <path class="cls-1" d="M724.83,185.13c-1.49-.3-37.44-76.98-45.85-89.07,0,0-11.65,88.15-13.02,89.35-1.58,1.38-25.25-.39-25.25-.39l5.72-6.71s14.3-111.1,16.76-113.01c1.78-1.38,22.16-.86,24.06.2,1.78.99,42.94,78.88,46.15,85.2,0,0,10.69-84.28,13.02-84.81,4.34-.99,21.3-.79,21.3-.79,0,0-17.24,119.13-18.15,120.04-.4.4-22.44.46-24.75,0Z"/>
      <path class="cls-1" d="M851.01,172.36c-1.49,5.64-7.13,10.69-21.53,14.55-16.53,4.43-44.7-.49-49.9-2.82-5.2-2.35-7.79-6.72-9.06-12.77-1.28-6.04.87-27.44,1.93-34.16,1.78-11.29,6.39-33.71,18.12-39.21,5.29-2.48,18.56-5.94,28.66-5.64,5.8.17,25.69,1.04,32.82,5.05,7.22,4.06,11.14,10.99,9.21,25.39-.12.9-3.03,22.17-10.25,49.6ZM838.69,113.26c-2.11-2.82-32.52-4.9-36.38-1.63-3.08,2.61-13.22,52.57-9.8,56.28,5.13,5.57,36.38,0,37.87-1.49,1.34-1.34,9.21-51.98,8.32-53.16Z"/>
      <path class="cls-1" d="M948.6,184.42c-3.75,2.37-14.34,1.18-17.55,1.18-3.75,0-3.52-2.02-4.93-2.96-.59-.39-6.51,2.76-7.89,3.16-3.37.96-9.46,2.37-12.62,2.37-7.62,0-14.48.24-20.12-1.97-5.62-2.23-10.19-3.86-14-7.69-4.05-4.06-4.92-13.19-4.93-19.33-.02-6.05,5.4-48.84,13.61-56.8,6.51-6.31,22.5-9.63,24.85-9.86,7.89-.79,20.3.87,23.08,1.58,2.75.71,8.13,2.25,10.85,3.55,0,0,5.33-41.09,6.31-41.62,1.71-.91,20.71-1.18,21.1.79.67,3.34-17.75,127.61-17.75,127.61ZM890.61,167.06c2.76,3.55,12.24,4.34,18.54,3.94,3.16-.2,11.21-1.97,13.21-2.37,3.94-.79,6.51-4.54,7.49-6.9l6.51-46.35c-6.31-4.73-25.06-5.65-29.39-5.33-9.9.75-13.36,17.22-14.79,27.42-1.58,11.24-4.07,26.38-1.58,29.58Z"/>
      <path class="cls-1" d="M968.72,133.93c1.63-8.14,4.1-17.15,5.33-21.3,1.97-6.71,9.07-12.23,11.24-13.81,3.45-2.51,12.43-5.33,14.99-5.52,3.82-.29,15.19-1.84,23.47-.59,12.98,1.96,21.5,7.49,23.27,9.47,4.95,5.5,5.33,15.19,4.93,20.12-.24,1.52-3.55,21.89-5.33,24.85l-56.61-.59c-1.38,3.16-3.77,15.97.2,19.13,3.95,3.17,8.46,3.75,15.98,3.75,4.8,0,14.16-.89,18.93-1.78,4.77-.87,14.22-2.85,15.19-2.56,1.97.59-2.17,17.95-2.17,17.95-1.52.7-12.28,2.38-15.58,2.96-3.35.59-15.19,1.58-17.95,1.78-6.15.44-18.74-1.58-23.87-3.35-3.93-1.36-12.43-10.45-13.41-13.02-1.95-5.07-2.56-9.66-1.78-15.98.74-5.89,1.78-14.6,3.16-21.5ZM1027.89,129.59c.59-4.34,2.62-15.91.2-17.36-2.75-1.65-6.82-2.18-11.64-2.56-4.68-.37-11.91-.77-15.58.59-2.19.81-4.62,3.16-5.72,5.33-1.11,2.17-2.96,10.65-3.16,14.79l35.9-.79Z"/>
      <path class="cls-1" d="M118.98,39.82h24.65s.21.18.22.38c.57,11.17,1.12,22.34,1.67,33.5.27,5.47.21,10.97.85,16.4.83,7.06,5.58,11.33,12.02,13.46,3.58,1.18,7.54,1.29,11.35,1.7,9.31,1,18.62,1.98,27.95,2.79,5.28.46,10.59.63,15.89.81,2.6.09,3.17.83,2.57,3.55-1.35,6.11-2.35,12.31-3.06,18.52-.28,2.45-.85,3.1-3.39,3.19-17.94.59-35.87,1.31-53.79,2.17-7.87.38-12.08,4.02-13.17,11.71-1.09,7.75-1.52,15.59-2.31,23.39-.62,6.13-1.45,12.24-1.99,18.38-.29,3.32-.25,6.68-.2,10.03.03,2.19-.94,3.44-3.05,3.72-6.31.82-12.64,1.54-18.96,2.35-2.42.31-3.4-.41-3.48-3.05-.32-10.47-.83-20.93-1.4-31.38-.35-6.28-.8-12.57-1.49-18.82-.69-6.22-8-11.69-15.12-12.2-8.97-.65-17.91-1.75-26.87-2.61-5.74-.55-11.48-1.06-17.22-1.53-2.12-.17-2.51-1.32-2.36-3.17.52-6.17,1.08-12.34,1.33-18.53.11-2.56.79-3.49,3.54-3.59,15.87-.58,31.73-1.28,47.58-2.12,8.45-.45,13.78-7.01,13.76-14.13-.02-7.92,1.34-15.84,2-23.77.79-9.5,1.47-19,2.2-28.51.05-.69.14-1.38.27-2.64Z"/>
      <path class="cls-1" d="M184.33,149.05c11.41-.46,22.81-.96,34.22-1.36,13.87-.49,12.94,5.06,12.53,14.32-.19,4.24-.95,8.44-1.37,12.67-.99,9.99-1.93,19.98-2.89,29.97-.24,2.47-.43,4.94-.7,7.41-.65,5.93-7.03,9.8-12.65,10.21-9.69.72-19.4,1.05-29.11,1.49-6.96.31-13.95.31-20.89.84-6.93.53-12.84-4.13-11.43-12.94.71-4.42,1.03-8.9,1.49-13.35.7-6.7,1.41-13.4,2.04-20.1.38-4.01.73-8.02.9-12.04.51-11.69,6.3-16.02,16.02-16.36,3.95-.14,7.88-.56,11.83-.85,0,.03,0,.07.01.1Z"/>
      <path class="cls-1" d="M52.63,97.3c-5.14.28-10.3.83-15.43.71-2.71-.06-5.71-.77-8-2.13-4.74-2.82-4.56-7.69-4.03-12.44.82-7.33.95-11.97,2.07-18.26,0,0,.27-1.49,3.01-32.08h0s3.85-8.56,10.12-9.59c2.93-.48,5.93-.62,8.91-.75,12-.52,24-.96,36-1.47,3.34-.14,6.68-.67,10.02-.65,5.46.04,9.1,3.61,8.77,8.95-.46,7.65-1.43,15.27-2.06,22.92-.38,4.61-.38,9.24-.81,13.84-.57,6.09-1.29,12.17-2.13,18.23-1.02,7.31-6.45,10.09-11.99,10.59-11.45,1.03-22.94,1.67-34.42,2.47,0-.11-.01-.22-.02-.34Z"/>
      <path class="cls-1" d="M597.03,184.25c.41.55.82,1.1,1.23,1.65-.41-.55-.82-1.1-1.23-1.65Z"/>
      <path class="cls-1" d="M448.12,185.77c1,.13,1.99.26,2.99.39-1-.13-1.99-.26-2.99-.39Z"/>
      <path class="cls-1" d="M281.14,185.81c.29.07.58.14.87.2-.29-.07-.58-.14-.87-.2Z"/>
      <path class="cls-1" d="M517.07,186.28c.27.01.55.02.82.03-.27-.01-.55-.02-.82-.03Z"/>
      <path class="cls-1" d="M545.34,185.81c.29.08.59.15.88.23-.29-.08-.59-.15-.88-.23Z"/>
      <path class="cls-1" d="M574.38,186.19c.26-.16.51-.32.77-.48-.26.16-.51.32-.77.48Z"/>
      <path class="cls-1" d="M308.03,186.27c.28,0,.55.01.83.02-.28,0-.55-.01-.83-.02Z"/>
      <path class="cls-1" d="M324.05,116.82c.48.08.97.15,1.45.23-.48-.08-.97-.15-1.45-.23Z"/>
      <path class="cls-1" d="M163.25,76.86l-3.68-65.42c.08-1.18.47-4.55,3.11-7.46C166.85-.63,172.97,0,173.62.07c23.47,1.56,46.94,3.13,70.41,4.69,1.65.46,3.86,1.34,5.94,3.12,6.17,5.3,5.63,13.8,5.53,14.99.73,16.3,1.47,32.6,2.2,48.89.15,1.36,1.3,13.74-7.63,21.27-3.43,2.89-7.12,4.04-9.54,4.53-20.42-1.96-40.84-3.92-61.26-5.88-.97.05-6.67.24-11.31-4.2-4.42-4.23-4.67-9.59-4.7-10.63Z"/>
      <path class="cls-1" d="M13.66,149.14c-1.18-.02-5.58.06-9.27,3.34-5.65,5.03-4.26,12.82-4.18,13.23.28,20.5.56,40.99.84,61.49.09,1.18.78,8.24,6.88,12.88,4.08,3.1,8.42,3.46,10.1,3.51,21.25,1.76,42.5,3.52,63.76,5.28,1.67-.11,5.22-.6,8.49-3.16,6.51-5.09,5.94-13.69,5.87-14.48-.96-19.92-1.92-39.84-2.88-59.76.03-.85.16-8.02-5.57-12.62-3.76-3.02-7.91-3.24-9.33-3.25-21.57-2.16-43.15-4.31-64.72-6.47Z"/>
    </g>
  </g>
</svg>